{
  "accessors": [
    {
      "bufferView": 2,
      "componentType": 5126,
      "count": 1733,
      "max": [
        5.6318798065185547,
        0.46445998549461365,
        1.1794899702072144
      ],
      "min": [
        -8.1057500839233398,
        -0.46445998549461365,
        -1.1794899702072144
      ],
      "type": "VEC3"
    },
    {
      "bufferView": 2,
      "byteOffset": 20796,
      "componentType": 5126,
      "count": 1733,
      "max": [
        1,
        1,
        1
      ],
      "min": [
        -0.98716521263122559,
        -1,
        -1
      ],
      "type": "VEC3"
    },
    {
      "bufferView": 3,
      "componentType": 5126,
      "count": 1733,
      "max": [
        1,
        0.99999994039535522,
        0.96206861734390259,
        1
      ],
      "min": [
        -0.97706198692321777,
        -1,
        -0.96582335233688354,
        1
      ],
      "type": "VEC4"
    },
    {
      "bufferView": 1,
      "componentType": 5126,
      "count": 1733,
      "max": [
        0.99773001670837402,
        0.99625998735427856
      ],
      "min": [
        0.0064300000667572021,
        0.0028899998869746923
      ],
      "type": "VEC2"
    },
    {
      "bufferView": 0,
      "componentType": 5125,
      "count": 7884,
      "max": [
        1732
      ],
      "min": [
        0
      ],
      "type": "SCALAR"
    }
  ],
  "asset": {
    "extras": {
      "author": "Le Modeler (https://sketchfab.com/jokumw)",
      "license": "CC-BY-4.0 (http://creativecommons.org/licenses/by/4.0/)",
      "source": "https://sketchfab.com/3d-models/just-a-knife-a738d1bb857b4046b31114787d1d543f",
      "title": "Just a knife"
    },
    "generator": "Sketchfab-5.6.0",
    "version": "2.0"
  },
  "bufferViews": [
    {
      "buffer": 0,
      "byteLength": 31536,
      "byteOffset": 0,
      "name": "floatBufferViews",
      "target": 34963
    },
    {
      "buffer": 0,
      "byteLength": 13864,
      "byteOffset": 31536,
      "byteStride": 8,
      "name": "floatBufferViews",
      "target": 34962
    },
    {
      "buffer": 0,
      "byteLength": 41592,
      "byteOffset": 45400,
      "byteStride": 12,
      "name": "floatBufferViews",
      "target": 34962
    },
    {
      "buffer": 0,
      "byteLength": 27728,
      "byteOffset": 86992,
      "byteStride": 16,
      "name": "floatBufferViews",
      "target": 34962
    }
  ],
  "buffers": [
    {
      "byteLength": 114720,
      "uri": "scene.bin"
    }
  ],
  "images": [
    {
      "uri": "textures/Knife_metallicRoughness.png"
    },
    {
      "uri": "textures/Knife_baseColor.png"
    },
    {
      "uri": "textures/Knife_normal.png"
    }
  ],
  "materials": [
    {
      "doubleSided": false,
      "name": "Knife",
      "normalTexture": {
        "index": 2,
        "scale": 1,
        "texCoord": 0
      },
      "occlusionTexture": {
        "index": 0,
        "strength": 1,
        "texCoord": 0
      },
      "pbrMetallicRoughness": {
        "baseColorFactor": [
          1,
          1,
          1,
          1
        ],
        "baseColorTexture": {
          "index": 1,
          "texCoord": 0
        },
        "metallicFactor": 1,
        "metallicRoughnessTexture": {
          "index": 0,
          "texCoord": 0
        },
        "roughnessFactor": 1
      }
    }
  ],
  "meshes": [
    {
      "name": "Knife_0",
      "primitives": [
        {
          "attributes": {
            "NORMAL": 1,
            "POSITION": 0,
            "TANGENT": 2,
            "TEXCOORD_0": 3
          },
          "indices": 4,
          "material": 0,
          "mode": 4
        }
      ]
    }
  ],
  "nodes": [
    {
      "children": [
        1
      ],
      "name": "RootNode (gltf orientation matrix)",
      "rotation": [
        -0.70710678118654746,
        -0,
        -0,
        0.70710678118654757
      ]
    },
    {
      "children": [
        2
      ],
      "matrix": [
        0.87754863500595093,
        0.21229304373264313,
        0.42993023991584778,
        0,
        0,
        0.896645188331604,
        -0.44274979829788208,
        0,
        -0.47948759794235229,
        0.38853451609611511,
        0.78684979677200317,
        0,
        -0.1514640599489212,
        0.26259294152259827,
        0.53179800510406494,
        1
      ],
      "name": "RootNode (model correction matrix)"
    },
    {
      "children": [
        3
      ],
      "name": "Root"
    },
    {
      "children": [
        4
      ],
      "name": "Knife"
    },
    {
      "mesh": 0,
      "name": "Knife_0"
    }
  ],
  "samplers": [
    {
      "magFilter": 9729,
      "minFilter": 9987,
      "wrapS": 10497,
      "wrapT": 10497
    }
  ],
  "scene": 0,
  "scenes": [
    {
      "name": "OSG_Scene",
      "nodes": [
        0
      ]
    }
  ],
  "textures": [
    {
      "sampler": 0,
      "source": 0
    },
    {
      "sampler": 0,
      "source": 1
    },
    {
      "sampler": 0,
      "source": 2
    }
  ]
}

